<svg width="64" height="46" viewBox="0 0 649 464" fill="none" xmlns="http://www.w3.org/2000/svg">
<rect x="10" y="221" width="629" height="233" rx="10" fill="white" stroke="black" stroke-width="20" stroke-linejoin="round"/>
<path d="M56.043 274.049H113.494C122.166 274.049 129.682 274.964 136.041 276.795C142.4 278.577 147.676 281.179 151.867 284.6C156.059 288.02 159.166 292.188 161.189 297.102C163.261 302.016 164.297 307.58 164.297 313.795C164.297 317.986 163.791 321.985 162.779 325.791C161.768 329.549 160.202 333.018 158.082 336.197C156.01 339.377 153.385 342.219 150.205 344.725C147.025 347.182 143.292 349.229 139.004 350.867L163.574 387H135.535L114.289 354.914H113.639L78.9512 354.842V387H56.043V274.049ZM114.072 335.041C118.408 335.041 122.19 334.535 125.418 333.523C128.694 332.512 131.416 331.09 133.584 329.26C135.8 327.429 137.438 325.213 138.498 322.611C139.606 319.962 140.16 317.023 140.16 313.795C140.16 307.484 137.992 302.618 133.656 299.197C129.32 295.729 122.792 293.994 114.072 293.994H78.9512V335.041H114.072ZM184.748 360.117C184.748 356.022 185.639 352.288 187.422 348.916C189.204 345.544 191.878 342.653 195.443 340.244C199.008 337.787 203.441 335.908 208.74 334.607C214.088 333.258 220.303 332.584 227.385 332.584C232.636 332.584 238.152 332.969 243.934 333.74C249.763 334.511 255.761 335.691 261.928 337.281C261.687 334.583 260.868 332.102 259.471 329.838C258.074 327.525 256.122 325.55 253.617 323.912C251.16 322.226 248.173 320.925 244.656 320.01C241.188 319.094 237.237 318.637 232.805 318.637C230.396 318.637 227.746 318.781 224.855 319.07C221.965 319.359 218.978 319.793 215.895 320.371C212.811 320.949 209.752 321.672 206.717 322.539C203.73 323.406 200.936 324.442 198.334 325.646L191.83 308.086C195.058 306.93 198.503 305.87 202.164 304.906C205.874 303.943 209.656 303.124 213.51 302.449C217.364 301.727 221.218 301.173 225.072 300.787C228.926 300.402 232.66 300.209 236.273 300.209C252.22 300.209 264.072 304.28 271.828 312.422C279.585 320.564 283.463 333.042 283.463 349.855V387H262.072V378.979C259.856 380.279 257.423 381.508 254.773 382.664C252.172 383.82 249.329 384.832 246.246 385.699C243.163 386.566 239.839 387.241 236.273 387.723C232.757 388.253 229.023 388.518 225.072 388.518C218.424 388.518 212.57 387.795 207.512 386.35C202.501 384.904 198.31 382.905 194.938 380.352C191.565 377.798 189.012 374.811 187.277 371.391C185.591 367.922 184.748 364.164 184.748 360.117ZM207.295 359.395C207.295 360.792 207.656 362.141 208.379 363.441C209.102 364.694 210.258 365.826 211.848 366.838C213.438 367.801 215.461 368.596 217.918 369.223C220.423 369.801 223.434 370.09 226.951 370.09C230.709 370.09 234.346 369.753 237.863 369.078C241.38 368.404 244.656 367.512 247.691 366.404C250.727 365.296 253.473 364.02 255.93 362.574C258.387 361.129 260.434 359.635 262.072 358.094V354.336C258.796 353.421 255.544 352.65 252.316 352.023C249.137 351.397 246.077 350.915 243.139 350.578C240.248 350.193 237.502 349.928 234.9 349.783C232.347 349.639 230.107 349.566 228.18 349.566C224.181 349.566 220.857 349.831 218.207 350.361C215.557 350.891 213.413 351.614 211.775 352.529C210.137 353.396 208.981 354.432 208.307 355.637C207.632 356.841 207.295 358.094 207.295 359.395ZM306.66 344.58C306.66 338.317 307.792 332.488 310.057 327.092C312.369 321.648 315.717 316.951 320.102 313C324.534 309.001 329.93 305.87 336.289 303.605C342.697 301.341 349.995 300.209 358.186 300.209C361.751 300.209 365.34 300.426 368.953 300.859C372.566 301.293 376.035 301.919 379.359 302.738C382.732 303.509 385.887 304.449 388.826 305.557C391.765 306.617 394.318 307.797 396.486 309.098L386.586 325.213C381.913 323.045 377.48 321.455 373.289 320.443C369.146 319.432 364.93 318.926 360.643 318.926C355.729 318.926 351.32 319.576 347.418 320.877C343.516 322.13 340.191 323.912 337.445 326.225C334.747 328.489 332.676 331.187 331.23 334.318C329.833 337.402 329.135 340.774 329.135 344.436C329.135 348.097 329.882 351.493 331.375 354.625C332.917 357.708 335.061 360.382 337.807 362.646C340.601 364.863 343.949 366.621 347.852 367.922C351.802 369.174 356.186 369.801 361.004 369.801C366.303 369.801 371.29 369.054 375.963 367.561C380.684 366.067 385.068 364.068 389.115 361.562L399.016 377.678C396.462 379.219 393.692 380.665 390.705 382.014C387.718 383.314 384.514 384.447 381.094 385.41C377.721 386.374 374.156 387.12 370.398 387.65C366.689 388.229 362.835 388.518 358.836 388.518C350.694 388.518 343.395 387.41 336.939 385.193C330.484 382.977 325.016 379.918 320.535 376.016C316.055 372.065 312.61 367.416 310.201 362.068C307.84 356.721 306.66 350.891 306.66 344.58ZM418.021 344.074C418.021 338.293 419.202 332.777 421.562 327.525C423.923 322.226 427.32 317.553 431.752 313.506C436.184 309.459 441.604 306.231 448.012 303.822C454.467 301.413 461.79 300.209 469.98 300.209C478.122 300.209 485.445 301.438 491.949 303.895C498.501 306.303 504.042 309.628 508.57 313.867C513.147 318.107 516.64 323.093 519.049 328.826C521.506 334.559 522.734 340.702 522.734 347.254C522.734 348.073 522.71 348.964 522.662 349.928C522.662 350.843 522.614 351.686 522.518 352.457H441.869C442.785 355.01 444.254 357.347 446.277 359.467C448.349 361.587 450.926 363.417 454.01 364.959C457.093 366.501 460.658 367.705 464.705 368.572C468.752 369.391 473.232 369.801 478.146 369.801C483.061 369.801 487.951 369.295 492.816 368.283C497.682 367.223 502.331 365.898 506.764 364.309L513.99 380.641C511.196 381.941 508.354 383.098 505.463 384.109C502.62 385.073 499.633 385.892 496.502 386.566C493.419 387.193 490.167 387.674 486.746 388.012C483.374 388.349 479.809 388.518 476.051 388.518C466.464 388.518 458.057 387.361 450.83 385.049C443.604 382.736 437.557 379.581 432.691 375.582C427.826 371.583 424.164 366.886 421.707 361.49C419.25 356.094 418.021 350.289 418.021 344.074ZM500.043 335.764C499.272 333.403 498.068 331.211 496.43 329.188C494.84 327.116 492.84 325.333 490.432 323.84C488.023 322.298 485.229 321.094 482.049 320.227C478.869 319.359 475.376 318.926 471.57 318.926C467.523 318.926 463.838 319.383 460.514 320.299C457.189 321.214 454.275 322.443 451.77 323.984C449.264 325.526 447.169 327.309 445.482 329.332C443.844 331.355 442.64 333.499 441.869 335.764H500.043ZM545.787 301.727H567.178V314.012C571.899 310.495 576.885 307.46 582.137 304.906C587.388 302.353 592.615 300.402 597.818 299.053L604.105 318.637C595.867 319.456 588.617 321.311 582.354 324.201C576.139 327.044 571.08 331.066 567.178 336.27V387H545.787V301.727Z" fill="black"/>
<rect x="10" y="10" width="629" height="233" rx="10" fill="black" stroke="black" stroke-width="20" stroke-linejoin="round"/>
<path d="M90.0801 83.1387H48.3828V63.0488H154.686V83.1387H112.988V176H90.0801V83.1387ZM176.51 90.6543H197.828V132.279C197.828 136.23 198.262 139.843 199.129 143.119C199.996 146.347 201.465 149.117 203.537 151.43C205.657 153.742 208.451 155.549 211.92 156.85C215.437 158.102 219.797 158.729 225 158.729C227.457 158.729 229.938 158.464 232.443 157.934C234.997 157.404 237.43 156.681 239.742 155.766C242.055 154.802 244.199 153.67 246.174 152.369C248.197 151.068 249.932 149.647 251.377 148.105V90.6543H272.768V176H251.377V168.701C246.126 171.833 240.85 174.073 235.551 175.422C230.251 176.771 225.217 177.445 220.447 177.445C212.643 177.445 205.946 176.506 200.357 174.627C194.817 172.748 190.264 170.026 186.699 166.461C183.182 162.848 180.605 158.439 178.967 153.236C177.329 147.985 176.51 142.011 176.51 135.314V90.6543ZM299.939 90.7266H321.33V103.012C326.051 99.4948 331.038 96.4596 336.289 93.9062C341.54 91.3529 346.768 89.4017 351.971 88.0527L358.258 107.637C350.02 108.456 342.769 110.311 336.506 113.201C330.291 116.044 325.232 120.066 321.33 125.27V176H299.939V90.7266ZM373.65 56.1113H395.041V98.748C396.92 97.4473 399.136 96.2188 401.689 95.0625C404.243 93.9062 406.989 92.8945 409.928 92.0273C412.867 91.1602 415.902 90.4857 419.033 90.0039C422.165 89.474 425.296 89.209 428.428 89.209C435.654 89.209 442.279 90.2689 448.301 92.3887C454.371 94.5085 459.574 97.4954 463.91 101.35C468.246 105.204 471.618 109.829 474.027 115.225C476.484 120.572 477.713 126.498 477.713 133.002C477.713 139.795 476.436 145.938 473.883 151.43C471.329 156.874 467.788 161.547 463.26 165.449C458.779 169.303 453.432 172.29 447.217 174.41C441.05 176.482 434.354 177.518 427.127 177.518C424.044 177.518 420.984 177.325 417.949 176.939C414.962 176.554 412.072 176.024 409.277 175.35C406.531 174.675 403.93 173.88 401.473 172.965C399.064 172.001 396.92 170.965 395.041 169.857V176H373.65V56.1113ZM395.041 149.189C397.209 150.924 399.497 152.393 401.906 153.598C404.315 154.802 406.772 155.79 409.277 156.561C411.783 157.331 414.312 157.91 416.865 158.295C419.419 158.632 421.9 158.801 424.309 158.801C429.223 158.801 433.583 158.15 437.389 156.85C441.243 155.501 444.471 153.67 447.072 151.357C449.722 149.045 451.745 146.323 453.143 143.191C454.54 140.06 455.238 136.663 455.238 133.002C455.238 129.581 454.54 126.354 453.143 123.318C451.794 120.283 449.818 117.633 447.217 115.369C444.663 113.057 441.556 111.25 437.895 109.949C434.281 108.6 430.21 107.926 425.682 107.926C422.791 107.926 419.9 108.215 417.01 108.793C414.119 109.323 411.325 110.094 408.627 111.105C405.977 112.117 403.472 113.346 401.111 114.791C398.799 116.236 396.775 117.85 395.041 119.633V149.189ZM492.383 133.363C492.383 127.245 493.611 121.512 496.068 116.164C498.574 110.816 502.115 106.143 506.691 102.145C511.316 98.1458 516.881 94.9902 523.385 92.6777C529.937 90.3652 537.284 89.209 545.426 89.209C553.568 89.209 560.891 90.3652 567.395 92.6777C573.947 94.9902 579.511 98.1458 584.088 102.145C588.713 106.143 592.254 110.816 594.711 116.164C597.216 121.512 598.469 127.245 598.469 133.363C598.469 139.482 597.216 145.215 594.711 150.562C592.254 155.91 588.713 160.583 584.088 164.582C579.511 168.581 573.947 171.736 567.395 174.049C560.891 176.361 553.568 177.518 545.426 177.518C537.284 177.518 529.937 176.361 523.385 174.049C516.881 171.736 511.316 168.581 506.691 164.582C502.115 160.583 498.574 155.91 496.068 150.562C493.611 145.215 492.383 139.482 492.383 133.363ZM514.857 133.363C514.857 136.784 515.532 140.036 516.881 143.119C518.278 146.154 520.277 148.852 522.879 151.213C525.529 153.525 528.732 155.38 532.49 156.777C536.296 158.126 540.608 158.801 545.426 158.801C550.243 158.801 554.531 158.126 558.289 156.777C562.095 155.38 565.299 153.525 567.9 151.213C570.55 148.852 572.549 146.154 573.898 143.119C575.296 140.036 575.994 136.784 575.994 133.363C575.994 129.943 575.296 126.691 573.898 123.607C572.549 120.524 570.55 117.826 567.9 115.514C565.299 113.153 562.095 111.298 558.289 109.949C554.531 108.552 550.243 107.854 545.426 107.854C540.608 107.854 536.296 108.552 532.49 109.949C528.732 111.298 525.529 113.153 522.879 115.514C520.277 117.826 518.278 120.524 516.881 123.607C515.532 126.691 514.857 129.943 514.857 133.363Z" fill="white"/>
</svg>
